<?xml version="1.0" encoding="utf-8"?>
<!-- Generator: Adobe Illustrator 22.0.1, SVG Export Plug-In . SVG Version: 6.00 Build 0)  -->
<svg version="1.1" id="Layer_1" xmlns="http://www.w3.org/2000/svg" xmlns:xlink="http://www.w3.org/1999/xlink" x="0px" y="0px"
	 viewBox="0 0 77.7 77.7" style="enable-background:new 0 0 77.7 77.7;" xml:space="preserve">
<style type="text/css">
	.st0{fill:#52E57B;}
	.st1{fill:#F5FF66;}
	.st2{fill:#FF76A1;}
	.st3{fill:#9570E5;}
	.st4{fill:#5BC4FF;}
</style>
<g>
	<path class="st0" d="M72,59.1L45.6,22.8L69.5,15C79.4,27.7,80.4,45.3,72,59.1z"/>
</g>
<g>
	<path class="st1" d="M25.6,2.3v25.1l42.7-13.9C57.8,1.3,40.8-3.2,25.6,2.3z"/>
</g>
<g>
	<path class="st2" d="M23.9,3v44.9L0,40.1C-0.5,24,9,9.2,23.9,3z"/>
</g>
<g>
	<path class="st3" d="M0.1,42l42.7,13.9L28,76.1C12.5,71.7,1.4,58,0.1,42z"/>
</g>
<g>
	<path class="st4" d="M29.8,76.6l26.4-36.3L71,60.6C61.9,74,45.5,80.4,29.8,76.6z"/>
</g>
</svg>
