<svg xmlns="http://www.w3.org/2000/svg" xmlns:xlink="http://www.w3.org/1999/xlink" id="Layer_1" x="0" y="0" version="1.1" viewBox="0 0 77.7 77.7" xml:space="preserve" style="enable-background:new 0 0 77.7 77.7"><style type="text/css">.st0{fill:#52e57b}.st1{fill:#f5ff66}.st2{fill:#ff76a1}.st3{fill:#9570e5}.st4{fill:#5bc4ff}</style><g><path d="M72,59.1L45.6,22.8L69.5,15C79.4,27.7,80.4,45.3,72,59.1z" class="st0"/></g><g><path d="M25.6,2.3v25.1l42.7-13.9C57.8,1.3,40.8-3.2,25.6,2.3z" class="st1"/></g><g><path d="M23.9,3v44.9L0,40.1C-0.5,24,9,9.2,23.9,3z" class="st2"/></g><g><path d="M0.1,42l42.7,13.9L28,76.1C12.5,71.7,1.4,58,0.1,42z" class="st3"/></g><g><path d="M29.8,76.6l26.4-36.3L71,60.6C61.9,74,45.5,80.4,29.8,76.6z" class="st4"/></g></svg>