<svg xmlns="http://www.w3.org/2000/svg" xmlns:svg="http://www.w3.org/2000/svg" xmlns:xlink="http://www.w3.org/1999/xlink" id="Layer_1" x="0" y="0" version="1.1" viewBox="0 0 86 88" xml:space="preserve" style="enable-background:new 0 0 86 88"><style type="text/css">.st0{fill:#333}</style><g><path d="M32,958.6c-1.1,0-2,0.9-2,2v15.8c0,1.1,0.9,2,2,2h3.7c1.1,0,2-0.9,2-2v-15.8c0-1.1-0.9-2-2-2H32z" class="st0" transform="translate(0,-952.36218)"/><path d="M1.8,952.4c-1,0.1-1.8,1-1.8,2v84c0,1.1,0.9,2,2,2h82c1.1,0,2-0.9,2-2v-70.2c0-0.5-0.2-1-0.6-1.4L71.6,953 c-0.4-0.4-0.9-0.6-1.4-0.6H2C1.9,952.4,1.9,952.4,1.8,952.4L1.8,952.4z M26,956.4H60v24.8H26V956.4z M17.7,1002.1h50.5v7.9H17.7 C17.7,1010.1,17.7,1002.1,17.7,1002.1z M17.7,1014.1h50.5v10.1H17.7C17.7,1024.1,17.7,1014.1,17.7,1014.1z M17.7,1028.1h50.5v8.2 H17.7C17.7,1036.4,17.7,1028.1,17.7,1028.1z" class="st0" transform="translate(0,-952.36218)"/></g></svg>