<?xml version="1.0" encoding="utf-8"?>
<!-- Generator: Adobe Illustrator 22.0.1, SVG Export Plug-In . SVG Version: 6.00 Build 0)  -->
<svg version="1.1" id="Layer_1" xmlns="http://www.w3.org/2000/svg" xmlns:xlink="http://www.w3.org/1999/xlink" x="0px" y="0px"
	 viewBox="0 0 976 976" style="enable-background:new 0 0 976 976;" xml:space="preserve">
<style type="text/css">
	.st0{fill:#333333;}
</style>
<g>
	<path class="st0" d="M486.4,540.1c-21.2,0-38.4,17.2-38.4,38.4c0,16.5,10.6,30.4,25.1,35.7v50.3c0,7.3,6,13.2,13.2,13.2
		s13.2-6,13.2-13.2v-50.3c15.2-5.3,25.8-19.2,25.1-35.7C524.8,557.3,507.6,540.1,486.4,540.1z"/>
	<path class="st0" d="M488,0C218.5,0,0,218.5,0,488s218.5,488,488,488s488-218.5,488-488S757.5,0,488,0z M684.2,708.8
		c0,23.1-18.5,42.3-42.3,42.3H334.3c-23.1,0-42.3-19.2-42.3-42.3V493.2c0-23.1,19.2-42.3,42.3-42.3h19.2v-90.6c0-46.3-37.7-84-84-84
		c-46.3,0-84,37.7-84,84v114.4c0,14.6-11.2,25.8-25.8,25.8c-14.6,0-25.8-11.9-25.8-25.8V360.2c0-74.7,60.8-134.9,134.9-134.9
		s134.3,60.2,134.3,134.9v90.6h238.1c23.1,0,42.3,19.2,43,42.3V708.8z"/>
</g>
</svg>
