<?xml version="1.0" encoding="utf-8"?>
<!-- Generator: Adobe Illustrator 22.0.1, SVG Export Plug-In . SVG Version: 6.00 Build 0)  -->
<svg version="1.1"
	 id="Layer_1" xmlns:cc="http://creativecommons.org/ns#" xmlns:dc="http://purl.org/dc/elements/1.1/" xmlns:inkscape="http://www.inkscape.org/namespaces/inkscape" xmlns:rdf="http://www.w3.org/1999/02/22-rdf-syntax-ns#" xmlns:sodipodi="http://sodipodi.sourceforge.net/DTD/sodipodi-0.dtd" xmlns:svg="http://www.w3.org/2000/svg"
	 xmlns="http://www.w3.org/2000/svg" xmlns:xlink="http://www.w3.org/1999/xlink" x="0px" y="0px" viewBox="0 0 86 88"
	 style="enable-background:new 0 0 86 88;" xml:space="preserve">
<style type="text/css">
	.st0{fill:#333333;}
</style>
<g transform="translate(0,-952.36218)">
	<path class="st0" d="M32,958.6c-1.1,0-2,0.9-2,2v15.8c0,1.1,0.9,2,2,2h3.7c1.1,0,2-0.9,2-2v-15.8c0-1.1-0.9-2-2-2H32z"/>
	<path class="st0" d="M1.8,952.4c-1,0.1-1.8,1-1.8,2v84c0,1.1,0.9,2,2,2h82c1.1,0,2-0.9,2-2v-70.2c0-0.5-0.2-1-0.6-1.4L71.6,953
		c-0.4-0.4-0.9-0.6-1.4-0.6H2C1.9,952.4,1.9,952.4,1.8,952.4L1.8,952.4z M26,956.4H60v24.8H26V956.4z M17.7,1002.1h50.5v7.9H17.7
		C17.7,1010.1,17.7,1002.1,17.7,1002.1z M17.7,1014.1h50.5v10.1H17.7C17.7,1024.1,17.7,1014.1,17.7,1014.1z M17.7,1028.1h50.5v8.2
		H17.7C17.7,1036.4,17.7,1028.1,17.7,1028.1z"/>
</g>
</svg>
