<svg xmlns="http://www.w3.org/2000/svg" xmlns:xlink="http://www.w3.org/1999/xlink" id="Layer_1" x="0" y="0" version="1.1" viewBox="0 0 82.6 82.6" xml:space="preserve" style="enable-background:new 0 0 82.6 82.6"><g><path d="M76.6,62.8L48.5,24.2L73.9,16C84.5,29.5,85.5,48.2,76.6,62.8z"/></g><g><path d="M27.3,2.5v26.7l45.4-14.8C61.5,1.4,43.4-3.4,27.3,2.5z"/></g><g><path d="M25.4,3.2v47.7L0,42.7C-0.5,25.5,9.6,9.8,25.4,3.2z"/></g><g><path d="M0.1,44.6l45.4,14.8L29.8,81C13.3,76.2,1.5,61.8,0.1,44.6z"/></g><g><path d="M31.7,81.5l28.1-38.6l15.7,21.6C65.9,78.7,48.5,85.5,31.7,81.5z"/></g></svg>