<svg xmlns="http://www.w3.org/2000/svg" xmlns:xlink="http://www.w3.org/1999/xlink" id="Layer_1" x="0" y="0" version="1.1" viewBox="0 0 59.4 79.5" xml:space="preserve" style="enable-background:new 0 0 59.4 79.5"><path d="M53,34.1h-2.9V20.4C50.1,9.1,40.9,0,29.7,0C18.5,0,9.3,9.1,9.3,20.4v13.7H6.4C2.9,34.1,0,37,0,40.5v32.6	c0,3.5,2.9,6.4,6.4,6.4H53c3.5,0,6.4-2.9,6.4-6.4V40.5C59.4,37,56.5,34.1,53,34.1z M31.7,58.8v7.6c0,1.1-0.9,2-2,2c-1.1,0-2-0.9-2-2	v-7.6c-2.2-0.8-3.8-2.9-3.8-5.4c0-3.2,2.6-5.8,5.8-5.8c3.2,0,5.8,2.6,5.8,5.8C35.5,55.9,33.9,58,31.7,58.8z M42.4,34.1H17V20.4	c0-7,5.7-12.7,12.7-12.7c7,0,12.7,5.7,12.7,12.7C42.4,20.4,42.4,34.1,42.4,34.1z"/></svg>