<svg xmlns="http://www.w3.org/2000/svg" xmlns:xlink="http://www.w3.org/1999/xlink" id="Layer_1" x="0" y="0" version="1.1" viewBox="0 0 64 81.2" xml:space="preserve" style="enable-background:new 0 0 64 81.2"><style type="text/css">.st0{fill:#fff}</style><g><path d="M5.8,29.7v40.5c0,6.1,4.9,11,11,11h30.4c6.1,0,11-4.9,11-11V29.7c3.2-0.1,5.8-2.8,5.8-6v-8.1c0-3.3-2.7-6-6-6 H46.6V6.5c0-3.6-2.9-6.5-6.5-6.5H23.9c-3.6,0-6.5,2.9-6.5,6.5v3.1H6c-3.3,0-6,2.7-6,6v8.2C0,27,2.6,29.6,5.8,29.7z M47.2,75.3H16.8 c-2.8,0-5-2.2-5-5V29.8h40.4v40.5C52.2,73,49.9,75.3,47.2,75.3z M23.4,6.5c0-0.3,0.2-0.5,0.5-0.5H40c0.3,0,0.5,0.2,0.5,0.5v3.1 H23.4V6.5z M6,15.6h52v8.2H6V15.6z" class="st0"/><rect width="6" height="29.2" x="39.3" y="37.4" class="st0"/><rect width="6" height="29.2" x="29" y="37.4" class="st0"/><rect width="6" height="29.2" x="18.7" y="37.4" class="st0"/></g></svg>