<svg xmlns="http://www.w3.org/2000/svg" xmlns:xlink="http://www.w3.org/1999/xlink" id="Layer_1" x="0" y="0" version="1.1" viewBox="0 0 822 822" xml:space="preserve" style="enable-background:new 0 0 822 822"><style type="text/css">.st0{fill:#fff}</style><g><path d="M410.7,232.6c-39,0-70.7,31.7-70.7,70.7v76.3h141.4v-76.3C481.4,264.3,449.7,232.6,410.7,232.6z" class="st0"/><path d="M410.7,454.7c-17.8,0-32.3,14.5-32.3,32.3c0,13.9,8.9,25.6,21.2,30.1v42.3c0,6.1,5,11.1,11.1,11.1 s11.1-5,11.1-11.1v-42.3c12.2-4.5,21.2-16.1,21.2-30.1C443,469.2,428.5,454.7,410.7,454.7z" class="st0"/><path d="M411,0C184,0,0,184,0,411s184,411,411,411s411-184,411-411S638,0,411,0z M576,596.7 c0,19.5-16.1,35.6-35.6,35.6H281c-19.5,0-35.6-16.1-35.6-35.6V415.2c0-19.5,16.1-35.6,35.6-35.6h16.1v-76.3 c0-62.9,51.2-113.6,113.6-113.6s113.6,50.7,113.6,113.6v76.3h16.1c19.5,0,35.6,16.1,35.6,35.6V596.7z" class="st0"/></g></svg>