<svg xmlns="http://www.w3.org/2000/svg" xmlns:xlink="http://www.w3.org/1999/xlink" id="Layer_1" x="0" y="0" version="1.1" viewBox="0 0 230.1 226.2" xml:space="preserve" style="enable-background:new 0 0 230.1 226.2"><g><path d="M229.7,107.2l-15.3-88.5c-0.4-2.2-1.9-4-4-4.8c-2.1-0.7-4.5-0.3-6.1,1.2l-15.7,14.2C170.6,14.6,142.7,0,113.3,0 C61.9,0,17.1,34.8,4.5,84.5c-0.8,3.3,1.1,6.6,4.4,7.5L51,102.8c1.6,0.4,3.3,0.2,4.7-0.7c1.4-0.8,2.4-2.2,2.8-3.8 c6.4-25.2,29.1-42.8,55.1-42.8c10.9,0,23.7,5.5,33.4,12l-15.2,13.7c-1.7,1.5-2.4,3.8-1.9,6c0.5,2.2,2.2,3.9,4.4,4.5l87.9,23.6 c0.5,0.1,1.1,0.2,1.6,0.2c0,0,0.1,0,0.1,0c3.4,0,6.2-2.8,6.2-6.1C230.1,108.7,230,107.9,229.7,107.2z M148.5,82.8l16.7-15.3 l-0.8-0.8c-6.6-6.8-25.2-23-52.4-23c-38.7,0-56.9,27.5-64.6,45.4l-30-8.2c8.7-20.1,35.8-68.8,94.6-68.8c27.7,0,55.1,11.9,75.2,32.7 l1.3,1.3l15.6-14.3l12,69.2L148.5,82.8z"/><path d="M221.2,134.2l-42.2-10.8c-1.6-0.4-3.3-0.2-4.7,0.7c-1.4,0.8-2.4,2.2-2.8,3.8c-6.4,25.2-29.1,42.8-55.1,42.8 c-10.9,0-23.7-5.5-33.4-12l15.2-13.7c1.7-1.5,2.4-3.8,1.9-6c-0.5-2.2-2.2-3.9-4.4-4.5L7.9,110.8c-0.5-0.1-1.1-0.2-1.6-0.2 c0,0-0.1,0-0.1,0c-3.4,0-6.2,2.8-6.2,6.1c0,0.8,0.1,1.6,0.4,2.2l15.3,88.5c0.4,2.2,1.9,4,4,4.8c2.1,0.7,4.5,0.3,6.1-1.2l15.7-14.2 c17.9,14.8,45.7,29.4,75.2,29.4c51.4,0,96.1-34.8,108.8-84.5C226.5,138.4,224.5,135,221.2,134.2z M118.1,214 c-27.7,0-55.1-11.9-75.2-32.7l-1.3-1.3L26,194.3l-12-69.2l67.6,18.2l-16.7,15.3l0.8,0.8c6.6,6.8,25.2,23,52.4,23 c38.7,0,56.9-27.5,64.6-45.4l30,8.2C204,165.3,176.9,214,118.1,214z"/></g></svg>