<svg xmlns="http://www.w3.org/2000/svg" xmlns:xlink="http://www.w3.org/1999/xlink" id="Layer_1" x="0" y="0" version="1.1" viewBox="0 0 512 512" xml:space="preserve" style="enable-background:new 0 0 512 512"><path d="M256,0C114.8,0,0,114.8,0,256s114.8,256,256,256s256-114.8,256-256S397.2,0,256,0z M379.1,275.7H275.7V384	c0,10.9-8.8,19.7-19.7,19.7s-19.7-8.8-19.7-19.7V275.7H132.9c-10.9,0-19.7-8.8-19.7-19.7s8.8-19.7,19.7-19.7h103.4v-98.5	c0-10.9,8.8-19.7,19.7-19.7s19.7,8.8,19.7,19.7v98.5h103.4c10.9,0,19.7,8.8,19.7,19.7S389.9,275.7,379.1,275.7z"/></svg>